<mxfile host="Electron" modified="2024-07-18T16:35:11.462Z" agent="Mozilla/5.0 (Windows NT 10.0; Win64; x64) AppleWebKit/537.36 (KHTML, like Gecko) draw.io/22.0.0 Chrome/114.0.5735.289 Electron/25.8.3 Safari/537.36" etag="x9NZNdbV_sB6zwub1U95" version="22.0.0" type="device">
  <diagram name="Page-1" id="o_oFSm1J90EcaIIvSXJN">
    <mxGraphModel dx="1585" dy="1025" grid="1" gridSize="10" guides="1" tooltips="1" connect="1" arrows="1" fold="1" page="1" pageScale="1" pageWidth="827" pageHeight="1169" math="0" shadow="0">
      <root>
        <mxCell id="0" />
        <mxCell id="1" parent="0" />
        <mxCell id="KtkpmuB6DB2TqpmMc6Bi-3" value="" style="rounded=0;whiteSpace=wrap;html=1;align=left;fillColor=none;dashed=1;dashPattern=8 8;" vertex="1" parent="1">
          <mxGeometry x="90" y="550" width="500" height="210" as="geometry" />
        </mxCell>
        <mxCell id="KtkpmuB6DB2TqpmMc6Bi-25" style="edgeStyle=orthogonalEdgeStyle;rounded=0;orthogonalLoop=1;jettySize=auto;html=1;exitX=0.5;exitY=0;exitDx=0;exitDy=0;" edge="1" parent="1" source="KtkpmuB6DB2TqpmMc6Bi-1" target="KtkpmuB6DB2TqpmMc6Bi-41">
          <mxGeometry relative="1" as="geometry">
            <mxPoint x="245" y="430" as="targetPoint" />
          </mxGeometry>
        </mxCell>
        <mxCell id="KtkpmuB6DB2TqpmMc6Bi-26" style="edgeStyle=orthogonalEdgeStyle;rounded=0;orthogonalLoop=1;jettySize=auto;html=1;entryX=0.5;entryY=1;entryDx=0;entryDy=0;exitX=0.5;exitY=0;exitDx=0;exitDy=0;" edge="1" parent="1" source="KtkpmuB6DB2TqpmMc6Bi-1" target="KtkpmuB6DB2TqpmMc6Bi-23">
          <mxGeometry relative="1" as="geometry">
            <Array as="points">
              <mxPoint x="340" y="500" />
              <mxPoint x="470" y="500" />
            </Array>
          </mxGeometry>
        </mxCell>
        <mxCell id="KtkpmuB6DB2TqpmMc6Bi-84" value="Vector Search" style="edgeLabel;html=1;align=center;verticalAlign=middle;resizable=0;points=[];" vertex="1" connectable="0" parent="KtkpmuB6DB2TqpmMc6Bi-26">
          <mxGeometry x="-0.6929" y="-2" relative="1" as="geometry">
            <mxPoint as="offset" />
          </mxGeometry>
        </mxCell>
        <mxCell id="KtkpmuB6DB2TqpmMc6Bi-81" style="edgeStyle=orthogonalEdgeStyle;rounded=0;orthogonalLoop=1;jettySize=auto;html=1;startArrow=classic;startFill=1;" edge="1" parent="1" source="KtkpmuB6DB2TqpmMc6Bi-1" target="KtkpmuB6DB2TqpmMc6Bi-79">
          <mxGeometry relative="1" as="geometry" />
        </mxCell>
        <mxCell id="KtkpmuB6DB2TqpmMc6Bi-85" value="Embedding +&lt;br&gt;Reply Generation" style="edgeLabel;html=1;align=center;verticalAlign=middle;resizable=0;points=[];" vertex="1" connectable="0" parent="KtkpmuB6DB2TqpmMc6Bi-81">
          <mxGeometry x="-0.1883" y="-4" relative="1" as="geometry">
            <mxPoint as="offset" />
          </mxGeometry>
        </mxCell>
        <mxCell id="KtkpmuB6DB2TqpmMc6Bi-1" value="rag&lt;br&gt;Service" style="rounded=0;whiteSpace=wrap;html=1;" vertex="1" parent="1">
          <mxGeometry x="280" y="580" width="120" height="60" as="geometry" />
        </mxCell>
        <mxCell id="KtkpmuB6DB2TqpmMc6Bi-77" style="edgeStyle=orthogonalEdgeStyle;rounded=0;orthogonalLoop=1;jettySize=auto;html=1;startArrow=classic;startFill=1;" edge="1" parent="1" source="KtkpmuB6DB2TqpmMc6Bi-2" target="KtkpmuB6DB2TqpmMc6Bi-1">
          <mxGeometry relative="1" as="geometry" />
        </mxCell>
        <mxCell id="KtkpmuB6DB2TqpmMc6Bi-2" value="tele_bot&lt;br&gt;Service" style="rounded=0;whiteSpace=wrap;html=1;" vertex="1" parent="1">
          <mxGeometry x="280" y="680" width="120" height="60" as="geometry" />
        </mxCell>
        <mxCell id="KtkpmuB6DB2TqpmMc6Bi-5" value="Amazon EC2" style="sketch=0;outlineConnect=0;fontColor=#232F3E;gradientColor=none;strokeColor=#ffffff;fillColor=#232F3E;dashed=0;verticalLabelPosition=middle;verticalAlign=bottom;align=center;html=1;whiteSpace=wrap;fontSize=10;fontStyle=1;spacing=3;shape=mxgraph.aws4.productIcon;prIcon=mxgraph.aws4.ec2;" vertex="1" parent="1">
          <mxGeometry x="90" y="550" width="80" height="100" as="geometry" />
        </mxCell>
        <mxCell id="KtkpmuB6DB2TqpmMc6Bi-7" value="" style="image;sketch=0;aspect=fixed;html=1;points=[];align=center;fontSize=12;image=img/lib/mscae/Docker.svg;" vertex="1" parent="1">
          <mxGeometry x="200" y="640" width="76.59" height="62.8" as="geometry" />
        </mxCell>
        <mxCell id="KtkpmuB6DB2TqpmMc6Bi-14" value="Datastax&lt;br&gt;AstraDB" style="sketch=0;outlineConnect=0;fontColor=#232F3E;gradientColor=none;strokeColor=#ffffff;fillColor=#232F3E;dashed=0;verticalLabelPosition=middle;verticalAlign=bottom;align=center;html=1;whiteSpace=wrap;fontSize=10;fontStyle=1;spacing=3;shape=mxgraph.aws4.productIcon;prIcon=mxgraph.aws4.dynamodb;" vertex="1" parent="1">
          <mxGeometry x="90" y="230" width="80" height="110" as="geometry" />
        </mxCell>
        <mxCell id="KtkpmuB6DB2TqpmMc6Bi-15" value="" style="rounded=0;whiteSpace=wrap;html=1;align=left;fillColor=none;dashed=1;dashPattern=8 8;" vertex="1" parent="1">
          <mxGeometry x="90" y="230" width="500" height="210" as="geometry" />
        </mxCell>
        <mxCell id="KtkpmuB6DB2TqpmMc6Bi-21" value="context_linkedin" style="swimlane;whiteSpace=wrap;html=1;" vertex="1" parent="1">
          <mxGeometry x="400" y="250" width="140" height="50" as="geometry">
            <mxRectangle x="360" y="140" width="100" height="30" as="alternateBounds" />
          </mxGeometry>
        </mxCell>
        <mxCell id="KtkpmuB6DB2TqpmMc6Bi-22" value="context_filesystem" style="swimlane;whiteSpace=wrap;html=1;startSize=23;" vertex="1" parent="1">
          <mxGeometry x="400" y="315" width="140" height="50" as="geometry">
            <mxRectangle x="360" y="140" width="100" height="30" as="alternateBounds" />
          </mxGeometry>
        </mxCell>
        <mxCell id="KtkpmuB6DB2TqpmMc6Bi-23" value="context_..." style="swimlane;whiteSpace=wrap;html=1;startSize=23;" vertex="1" parent="1">
          <mxGeometry x="400" y="380" width="140" height="50" as="geometry">
            <mxRectangle x="360" y="140" width="100" height="30" as="alternateBounds" />
          </mxGeometry>
        </mxCell>
        <mxCell id="KtkpmuB6DB2TqpmMc6Bi-41" value="messages" style="swimlane;fontStyle=0;childLayout=stackLayout;horizontal=1;startSize=30;horizontalStack=0;resizeParent=1;resizeParentMax=0;resizeLast=0;collapsible=1;marginBottom=0;whiteSpace=wrap;html=1;" vertex="1" parent="1">
          <mxGeometry x="200" y="330" width="140" height="90" as="geometry" />
        </mxCell>
        <mxCell id="KtkpmuB6DB2TqpmMc6Bi-42" value="domain (PK)" style="text;strokeColor=none;fillColor=none;align=left;verticalAlign=middle;spacingLeft=4;spacingRight=4;overflow=hidden;points=[[0,0.5],[1,0.5]];portConstraint=eastwest;rotatable=0;whiteSpace=wrap;html=1;" vertex="1" parent="KtkpmuB6DB2TqpmMc6Bi-41">
          <mxGeometry y="30" width="140" height="30" as="geometry" />
        </mxCell>
        <mxCell id="KtkpmuB6DB2TqpmMc6Bi-43" value="message_id (SK)" style="text;strokeColor=none;fillColor=none;align=left;verticalAlign=middle;spacingLeft=4;spacingRight=4;overflow=hidden;points=[[0,0.5],[1,0.5]];portConstraint=eastwest;rotatable=0;whiteSpace=wrap;html=1;" vertex="1" parent="KtkpmuB6DB2TqpmMc6Bi-41">
          <mxGeometry y="60" width="140" height="30" as="geometry" />
        </mxCell>
        <mxCell id="KtkpmuB6DB2TqpmMc6Bi-45" value="Core Functionality" style="text;html=1;strokeColor=none;fillColor=none;align=center;verticalAlign=middle;whiteSpace=wrap;rounded=0;fontStyle=1" vertex="1" parent="1">
          <mxGeometry x="300" y="180" width="60" height="30" as="geometry" />
        </mxCell>
        <mxCell id="KtkpmuB6DB2TqpmMc6Bi-46" value="Contextual Data Engine" style="text;html=1;strokeColor=none;fillColor=none;align=center;verticalAlign=middle;whiteSpace=wrap;rounded=0;fontStyle=1" vertex="1" parent="1">
          <mxGeometry x="680" y="180" width="90" height="30" as="geometry" />
        </mxCell>
        <mxCell id="KtkpmuB6DB2TqpmMc6Bi-47" value="" style="rounded=0;whiteSpace=wrap;html=1;align=left;fillColor=none;dashed=1;dashPattern=8 8;" vertex="1" parent="1">
          <mxGeometry x="670" y="230" width="110" height="210" as="geometry" />
        </mxCell>
        <mxCell id="KtkpmuB6DB2TqpmMc6Bi-67" style="edgeStyle=orthogonalEdgeStyle;rounded=0;orthogonalLoop=1;jettySize=auto;html=1;entryX=1;entryY=0.5;entryDx=0;entryDy=0;" edge="1" parent="1" source="KtkpmuB6DB2TqpmMc6Bi-56" target="KtkpmuB6DB2TqpmMc6Bi-21">
          <mxGeometry relative="1" as="geometry" />
        </mxCell>
        <mxCell id="KtkpmuB6DB2TqpmMc6Bi-56" value="" style="sketch=0;points=[[0,0,0],[0.25,0,0],[0.5,0,0],[0.75,0,0],[1,0,0],[0,1,0],[0.25,1,0],[0.5,1,0],[0.75,1,0],[1,1,0],[0,0.25,0],[0,0.5,0],[0,0.75,0],[1,0.25,0],[1,0.5,0],[1,0.75,0]];outlineConnect=0;fontColor=#232F3E;fillColor=#ED7100;strokeColor=#ffffff;dashed=0;verticalLabelPosition=bottom;verticalAlign=top;align=center;html=1;fontSize=12;fontStyle=0;aspect=fixed;shape=mxgraph.aws4.resourceIcon;resIcon=mxgraph.aws4.lambda;" vertex="1" parent="1">
          <mxGeometry x="712" y="261" width="28" height="28" as="geometry" />
        </mxCell>
        <mxCell id="KtkpmuB6DB2TqpmMc6Bi-68" style="edgeStyle=orthogonalEdgeStyle;rounded=0;orthogonalLoop=1;jettySize=auto;html=1;entryX=1;entryY=0.5;entryDx=0;entryDy=0;" edge="1" parent="1" source="KtkpmuB6DB2TqpmMc6Bi-57" target="KtkpmuB6DB2TqpmMc6Bi-22">
          <mxGeometry relative="1" as="geometry" />
        </mxCell>
        <mxCell id="KtkpmuB6DB2TqpmMc6Bi-57" value="" style="sketch=0;points=[[0,0,0],[0.25,0,0],[0.5,0,0],[0.75,0,0],[1,0,0],[0,1,0],[0.25,1,0],[0.5,1,0],[0.75,1,0],[1,1,0],[0,0.25,0],[0,0.5,0],[0,0.75,0],[1,0.25,0],[1,0.5,0],[1,0.75,0]];outlineConnect=0;fontColor=#232F3E;fillColor=#ED7100;strokeColor=#ffffff;dashed=0;verticalLabelPosition=bottom;verticalAlign=top;align=center;html=1;fontSize=12;fontStyle=0;aspect=fixed;shape=mxgraph.aws4.resourceIcon;resIcon=mxgraph.aws4.lambda;" vertex="1" parent="1">
          <mxGeometry x="711" y="326" width="28" height="28" as="geometry" />
        </mxCell>
        <mxCell id="KtkpmuB6DB2TqpmMc6Bi-66" style="edgeStyle=orthogonalEdgeStyle;rounded=0;orthogonalLoop=1;jettySize=auto;html=1;" edge="1" parent="1" source="KtkpmuB6DB2TqpmMc6Bi-64" target="KtkpmuB6DB2TqpmMc6Bi-56">
          <mxGeometry relative="1" as="geometry" />
        </mxCell>
        <mxCell id="KtkpmuB6DB2TqpmMc6Bi-64" value="External Data Sources" style="rounded=0;whiteSpace=wrap;html=1;" vertex="1" parent="1">
          <mxGeometry x="840" y="229" width="120" height="60" as="geometry" />
        </mxCell>
        <mxCell id="KtkpmuB6DB2TqpmMc6Bi-65" value="External Data Sources" style="rounded=0;whiteSpace=wrap;html=1;" vertex="1" parent="1">
          <mxGeometry x="840" y="310" width="120" height="60" as="geometry" />
        </mxCell>
        <mxCell id="KtkpmuB6DB2TqpmMc6Bi-69" style="edgeStyle=orthogonalEdgeStyle;rounded=0;orthogonalLoop=1;jettySize=auto;html=1;entryX=1;entryY=0.5;entryDx=0;entryDy=0;entryPerimeter=0;" edge="1" parent="1" source="KtkpmuB6DB2TqpmMc6Bi-65" target="KtkpmuB6DB2TqpmMc6Bi-57">
          <mxGeometry relative="1" as="geometry" />
        </mxCell>
        <mxCell id="KtkpmuB6DB2TqpmMc6Bi-70" value="&lt;font color=&quot;#ffffff&quot;&gt;EventBridge &lt;br&gt;scheduling&lt;/font&gt;" style="sketch=0;points=[[0,0,0],[0.25,0,0],[0.5,0,0],[0.75,0,0],[1,0,0],[0,1,0],[0.25,1,0],[0.5,1,0],[0.75,1,0],[1,1,0],[0,0.25,0],[0,0.5,0],[0,0.75,0],[1,0.25,0],[1,0.5,0],[1,0.75,0]];outlineConnect=0;fontColor=#232F3E;fillColor=#E7157B;strokeColor=#ffffff;dashed=0;verticalLabelPosition=bottom;verticalAlign=top;align=center;html=1;fontSize=12;fontStyle=0;aspect=fixed;shape=mxgraph.aws4.resourceIcon;resIcon=mxgraph.aws4.eventbridge;" vertex="1" parent="1">
          <mxGeometry x="711" y="430" width="30" height="30" as="geometry" />
        </mxCell>
        <mxCell id="KtkpmuB6DB2TqpmMc6Bi-76" style="edgeStyle=orthogonalEdgeStyle;rounded=0;orthogonalLoop=1;jettySize=auto;html=1;entryX=0.5;entryY=1;entryDx=0;entryDy=0;startArrow=classic;startFill=1;" edge="1" parent="1" source="KtkpmuB6DB2TqpmMc6Bi-73" target="KtkpmuB6DB2TqpmMc6Bi-2">
          <mxGeometry relative="1" as="geometry" />
        </mxCell>
        <mxCell id="KtkpmuB6DB2TqpmMc6Bi-73" value="Telegram API Server" style="sketch=0;html=1;dashed=0;whitespace=wrap;fillColor=#2875E2;strokeColor=#ffffff;points=[[0.005,0.63,0],[0.1,0.2,0],[0.9,0.2,0],[0.5,0,0],[0.995,0.63,0],[0.72,0.99,0],[0.5,1,0],[0.28,0.99,0]];verticalLabelPosition=bottom;align=center;verticalAlign=top;shape=mxgraph.kubernetes.icon;prIcon=api" vertex="1" parent="1">
          <mxGeometry x="300" y="810" width="80" height="70" as="geometry" />
        </mxCell>
        <mxCell id="KtkpmuB6DB2TqpmMc6Bi-74" value="Telegram app" style="sketch=0;html=1;aspect=fixed;strokeColor=none;shadow=0;fillColor=#3B8DF1;verticalAlign=top;labelPosition=center;verticalLabelPosition=bottom;shape=mxgraph.gcp2.phone_android" vertex="1" parent="1">
          <mxGeometry x="490" y="820" width="33.6" height="60" as="geometry" />
        </mxCell>
        <mxCell id="KtkpmuB6DB2TqpmMc6Bi-75" style="edgeStyle=orthogonalEdgeStyle;rounded=0;orthogonalLoop=1;jettySize=auto;html=1;entryX=0.895;entryY=0.584;entryDx=0;entryDy=0;entryPerimeter=0;" edge="1" parent="1" source="KtkpmuB6DB2TqpmMc6Bi-74" target="KtkpmuB6DB2TqpmMc6Bi-73">
          <mxGeometry relative="1" as="geometry" />
        </mxCell>
        <mxCell id="KtkpmuB6DB2TqpmMc6Bi-78" value="/save&lt;br&gt;/ask" style="edgeLabel;html=1;align=center;verticalAlign=middle;resizable=0;points=[];" vertex="1" connectable="0" parent="KtkpmuB6DB2TqpmMc6Bi-75">
          <mxGeometry x="0.1263" relative="1" as="geometry">
            <mxPoint as="offset" />
          </mxGeometry>
        </mxCell>
        <mxCell id="KtkpmuB6DB2TqpmMc6Bi-79" value="&lt;font color=&quot;#ffffff&quot;&gt;OpenAI API&lt;/font&gt;" style="sketch=0;outlineConnect=0;dashed=0;verticalLabelPosition=bottom;verticalAlign=top;align=center;html=1;fontSize=12;fontStyle=0;aspect=fixed;pointerEvents=1;shape=mxgraph.aws4.sagemaker_model;fillColor=#FCFCFC;strokeColor=none;" vertex="1" parent="1">
          <mxGeometry x="680" y="585" width="50" height="50" as="geometry" />
        </mxCell>
      </root>
    </mxGraphModel>
  </diagram>
</mxfile>
